HIERARCHY
ROOT Hips
{
	OFFSET 0.000000 0.000000 0.000000
	CHANNELS 6 Xposition Yposition Zposition Zrotation Yrotation Xrotation 
	JOINT LHipJoint
	{
		OFFSET 0.000000 0.000000 0.000000
		CHANNELS 3 Zrotation Yrotation Xrotation
		JOINT LeftUpLeg
		{
			OFFSET 1.363060 -1.794630 0.839290
			CHANNELS 3 Zrotation Yrotation Xrotation
			JOINT LeftLeg
			{
				OFFSET 2.448110 -6.726130 0.000000
				CHANNELS 3 Zrotation Yrotation Xrotation
				JOINT LeftFoot
				{
					OFFSET 2.562200 -7.039590 0.000000
					CHANNELS 3 Zrotation Yrotation Xrotation
					JOINT LeftToeBase
					{
						OFFSET 0.157640 -0.433110 2.322550
						CHANNELS 3 Zrotation Yrotation Xrotation
						End Site
						{
							OFFSET 0.000000 0.000000 0.000000
						}
					}
				}
			}
		}
	}
	JOINT RHipJoint
	{
		OFFSET 0.000000 0.000000 0.000000
		CHANNELS 3 Zrotation Yrotation Xrotation
		JOINT RightUpLeg
		{
			OFFSET -1.305520 -1.794630 0.839290
			CHANNELS 3 Zrotation Yrotation Xrotation
			JOINT RightLeg
			{
				OFFSET -2.542530 -6.985550 0.000000
				CHANNELS 3 Zrotation Yrotation Xrotation
				JOINT RightFoot
				{
					OFFSET -2.568260 -7.056230 0.000000
					CHANNELS 3 Zrotation Yrotation Xrotation
					JOINT RightToeBase
					{
						OFFSET -0.164730 -0.452590 2.363150
						CHANNELS 3 Zrotation Yrotation Xrotation
						End Site
						{
							OFFSET 0.000000 0.000000 0.000000
						}
					}
				}
			}
		}
	}
	JOINT LowerBack
	{
		OFFSET 0.000000 0.000000 0.000000
		CHANNELS 3 Zrotation Yrotation Xrotation
		JOINT Spine
		{
			OFFSET 0.028270 2.035590 -0.193380
			CHANNELS 3 Zrotation Yrotation Xrotation
			JOINT Spine1
			{
				OFFSET 0.056720 2.048850 -0.042750
				CHANNELS 3 Zrotation Yrotation Xrotation
				JOINT Neck
				{
					OFFSET 0.000000 0.000000 0.000000
					CHANNELS 3 Zrotation Yrotation Xrotation
					JOINT Neck1
					{
						OFFSET -0.054170 1.746240 0.172020
						CHANNELS 3 Zrotation Yrotation Xrotation
						JOINT Head
						{
							OFFSET 0.104070 1.761360 -0.123970
							CHANNELS 3 Zrotation Yrotation Xrotation
							End Site
							{
								OFFSET 0.000000 0.000000 0.000000
							}
						}
					}
				}
				JOINT LeftShoulder
				{
					OFFSET 0.000000 0.000000 0.000000
					CHANNELS 3 Zrotation Yrotation Xrotation
					JOINT LeftArm
					{
						OFFSET 3.362410 1.200890 -0.311210
						CHANNELS 3 Zrotation Yrotation Xrotation
						JOINT LeftForeArm
						{
							OFFSET 4.983000 -0.000000 -0.000000
							CHANNELS 3 Zrotation Yrotation Xrotation
							JOINT LeftHand
							{
								OFFSET 3.483560 -0.000000 -0.000000
								CHANNELS 3 Zrotation Yrotation Xrotation
								JOINT LeftFingerBase
								{
									OFFSET 0.000000 0.000000 0.000000
									CHANNELS 3 Zrotation Yrotation Xrotation
									JOINT LeftHandIndex1
									{
										OFFSET 0.715260 -0.000000 -0.000000
										CHANNELS 3 Zrotation Yrotation Xrotation
										End Site
										{
											OFFSET 0.000000 0.000000 0.000000
										}
									}
								}
								JOINT LThumb
								{
									OFFSET 0.000000 0.000000 0.000000
									CHANNELS 3 Zrotation Yrotation Xrotation
									End Site
									{
										OFFSET 0.000000 0.000000 0.000000
									}
								}
							}
						}
					}
				}
				JOINT RightShoulder
				{
					OFFSET 0.000000 0.000000 0.000000
					CHANNELS 3 Zrotation Yrotation Xrotation
					JOINT RightArm
					{
						OFFSET -3.136600 1.374050 -0.404650
						CHANNELS 3 Zrotation Yrotation Xrotation
						JOINT RightForeArm
						{
							OFFSET -5.241900 -0.000000 -0.000000
							CHANNELS 3 Zrotation Yrotation Xrotation
							JOINT RightHand
							{
								OFFSET -3.444170 -0.000000 -0.000000
								CHANNELS 3 Zrotation Yrotation Xrotation
								JOINT RightFingerBase
								{
									OFFSET 0.000000 0.000000 0.000000
									CHANNELS 3 Zrotation Yrotation Xrotation
									JOINT RightHandIndex1
									{
										OFFSET -0.622530 -0.000000 -0.000000
										CHANNELS 3 Zrotation Yrotation Xrotation
										End Site
										{
											OFFSET 0.000000 0.000000 0.000000
										}
									}
								}
								JOINT RThumb
								{
									OFFSET 0.000000 0.000000 0.000000
									CHANNELS 3 Zrotation Yrotation Xrotation
									End Site
									{
										OFFSET 0.000000 0.000000 0.000000
									}
								}
							}
						}
					}
				}
			}
		}
	}
}
MOTION
Frames: 9
Frame Time: 0.008333
-10.463256 16.691603 -1.190184 -18.457971 83.727574 0.101377 -9.284906 -0.477025 1.741989 -7.580421 -0.947835 -47.537416 -1.645768 0.802677 21.068888 1.420386 8.116399 5.088016 2.320000 -0.000000 -28.312500 9.857247 -2.243708 -2.397437 5.276028 -4.436004 -0.280455 1.541969 -1.418163 22.322940 0.001759 1.221493 1.542906 -0.044400 0.000000 -83.445800 -4.701307 0.825434 1.718379 -1.813362 1.077360 -2.507559 -6.169370 1.019825 1.280067 8.591401 -2.053487 -4.945302 -3.183399 -0.262453 0.557539 0.000000 0.000000 0.000000 -6.375322 11.335907 2.237974 -61.544922 9.627984 17.179114 -4.029676 -31.017994 -0.020398 -11.683302 4.589495 -0.474029 -0.076353 -0.070476 -0.000000 0.000000 0.000000 0.000000 0.000000 0.000000 0.000000 12.911240 2.059483 1.451564 47.396980 26.190190 13.003480 1.995092 55.535899 0.031178 10.317501 8.385842 0.785087 -0.069996 -0.229438 -0.000000 0.000000 0.000000 0.000000 0.000000 0.000000 0.000000 
-10.268241 16.695828 -1.201390 -12.507565 84.105476 5.866788 -9.418338 -0.487219 1.644642 -8.306241 -1.122097 -47.284084 -1.637497 0.912401 22.539740 1.440595 8.208203 4.563700 2.248400 0.000000 -27.657300 9.911613 -2.342887 -2.510302 4.435060 -5.115923 -1.161089 1.267934 -1.723712 24.925363 -0.060474 0.946806 3.470558 -0.041801 -0.000000 -85.577001 -5.508444 0.689315 1.842185 -1.974529 0.982159 -2.491752 -6.234519 0.923068 1.256085 8.728657 -1.990477 -4.863370 -3.234038 -0.266421 0.572514 0.000000 0.000000 0.000000 -6.254670 11.085127 2.262440 -61.231727 8.934830 17.001675 -4.087220 -30.646368 -0.020308 -11.642075 4.654653 -0.478505 -0.080832 -0.068274 -0.000000 0.000000 0.000000 0.000000 0.000000 0.000000 0.000000 13.251119 2.006597 1.405745 48.372095 25.467164 13.125602 2.064175 54.603844 0.030653 10.309376 8.321644 0.777502 -0.065183 -0.222061 -0.000000 0.000000 0.000000 0.000000 0.000000 0.000000 0.000000 
-10.075444 16.703240 -1.214100 -6.177982 84.583725 12.026641 -9.525663 -0.542617 1.545943 -9.013996 -1.399360 -46.890496 -1.625929 0.975896 23.859380 1.467113 8.354796 3.793042 2.157300 0.000000 -27.181100 10.007228 -2.461962 -2.629400 3.618203 -5.906707 -2.195591 0.993982 -2.035804 27.644075 -0.168777 0.520672 5.657445 -0.063500 -0.000000 -87.066300 -6.224890 0.521576 1.992281 -2.115098 0.851162 -2.467994 -6.291621 0.791135 1.233149 8.830448 -1.931113 -4.766779 -3.281908 -0.270302 0.590880 0.000000 0.000000 0.000000 -6.135896 10.773737 2.292368 -60.925836 8.167921 16.841088 -4.146084 -30.247575 -0.020107 -11.594463 4.730261 -0.483676 -0.085423 -0.065421 -0.000000 0.000000 0.000000 0.000000 0.000000 0.000000 0.000000 13.539455 1.918094 1.347870 49.393950 24.700235 13.201001 2.134543 53.575388 0.029972 10.294502 8.256237 0.769414 -0.060329 -0.213993 0.000000 0.000000 0.000000 0.000000 0.000000 0.000000 0.000000 
-9.885308 16.713591 -1.228662 0.352152 85.126638 18.405846 -9.576025 -0.624018 1.448938 -9.670224 -1.763863 -46.361377 -1.610930 0.994358 25.011336 1.500627 8.549527 2.831968 2.047600 0.000000 -26.876000 10.167335 -2.579976 -2.747140 2.864383 -6.759612 -3.362595 0.727429 -2.341228 30.449863 -0.329121 -0.088774 8.044424 -0.136300 0.000000 -87.634300 -6.795880 0.337863 2.164253 -2.227357 0.697105 -2.437389 -6.343334 0.636949 1.211785 8.894842 -1.875435 -4.658572 -3.326703 -0.274053 0.612068 0.000000 0.000000 0.000000 -6.022193 10.414508 2.325584 -60.633148 7.326034 16.693404 -4.204072 -29.830350 -0.019777 -11.536706 4.811034 -0.488743 -0.089964 -0.061901 -0.000000 0.000000 0.000000 0.000000 0.000000 0.000000 0.000000 13.772132 1.802844 1.281324 50.446994 23.894843 13.220916 2.205986 52.459855 0.029161 10.275723 8.190500 0.760822 -0.055489 -0.205356 0.000000 0.000000 0.000000 0.000000 0.000000 0.000000 0.000000 
-9.698160 16.726715 -1.245239 6.830516 85.678568 24.750609 -9.550674 -0.701566 1.359341 -10.250743 -2.185853 -45.710547 -1.595784 0.976037 25.979602 1.542979 8.782968 1.742752 1.920099 -0.000000 -26.715700 10.399499 -2.666826 -2.859349 2.202377 -7.619388 -4.632691 0.472568 -2.623739 33.313722 -0.539926 -0.901293 10.537314 -0.293700 0.000000 -87.055601 -7.193103 0.160516 2.349817 -2.308279 0.540622 -2.402508 -6.392538 0.481053 1.192374 8.923620 -1.823090 -4.542878 -3.368301 -0.277630 0.635296 0.000000 0.000000 0.000000 -5.914941 10.028200 2.358458 -60.358424 6.409154 16.553491 -4.259007 -29.406511 -0.019307 -11.465147 4.889905 -0.492907 -0.094296 -0.057785 -0.000000 0.000000 0.000000 0.000000 0.000000 0.000000 0.000000 13.950628 1.674623 1.211072 51.514873 23.059431 13.179818 2.278777 51.267373 0.028271 10.256514 8.125332 0.752330 -0.050685 -0.196350 0.000000 0.000000 0.000000 0.000000 0.000000 0.000000 0.000000 
-9.514138 16.742480 -1.264160 12.840347 86.175736 30.641902 -9.457599 -0.747188 1.284631 -10.736487 -2.624820 -44.965451 -1.584602 0.935283 26.755154 1.595436 9.040140 0.587107 1.775599 -0.000000 -26.662000 10.681762 -2.694627 -2.964745 1.658500 -8.426204 -5.974909 0.231557 -2.868166 36.205425 -0.792361 -1.930321 13.010485 -0.572600 0.000000 -85.243300 -7.419084 0.012870 2.536165 -2.359101 0.404869 -2.367142 -6.440847 0.346253 1.175354 8.919278 -1.772770 -4.424488 -3.406417 -0.280970 0.659713 0.000000 0.000000 0.000000 -5.818846 9.641920 2.386845 -60.103352 5.417045 16.417632 -4.309128 -28.991837 -0.018704 -11.376884 4.959044 -0.495268 -0.098316 -0.053208 -0.000000 0.000000 0.000000 0.000000 0.000000 0.000000 0.000000 14.077017 1.549590 1.142048 52.582437 22.203092 13.076225 2.353399 50.008089 0.027349 10.239373 8.061402 0.744135 -0.045913 -0.187211 0.000000 0.000000 0.000000 0.000000 0.000000 0.000000 0.000000 
-9.333375 16.760910 -1.284998 18.324873 86.590056 36.016485 -9.318859 -0.752666 1.225720 -11.145087 -3.060489 -44.130754 -1.580554 0.881123 27.321695 1.657303 9.316119 -0.568115 1.620700 0.000000 -26.668600 10.985309 -2.655481 -3.066327 1.217336 -9.155584 -7.364313 0.010897 -3.072690 39.095544 -1.071955 -3.161332 15.315524 -0.994300 0.000000 -82.290700 -7.521229 -0.098737 2.718836 -2.388308 0.298516 -2.333140 -6.488706 0.240872 1.159267 8.892680 -1.723792 -4.305890 -3.441631 -0.284088 0.684715 0.000000 0.000000 0.000000 -5.725889 9.260937 2.409796 -59.867995 4.367486 16.270199 -4.353918 -28.611805 -0.017991 -11.271469 5.013093 -0.495228 -0.101976 -0.048326 -0.000000 0.000000 0.000000 0.000000 0.000000 0.000000 0.000000 14.167182 1.434873 1.078739 53.636635 21.332427 12.908692 2.429950 48.694914 0.026440 10.230043 7.997323 0.736540 -0.041227 -0.178122 0.000000 0.000000 0.000000 0.000000 0.000000 0.000000 0.000000 
-9.155772 16.782006 -1.307692 23.048172 86.905325 40.636710 -9.165608 -0.720642 1.181910 -11.483876 -3.466673 -43.224007 -1.584214 0.822013 27.680044 1.725010 9.596131 -1.667508 1.461500 -0.000000 -26.692500 11.273758 -2.555153 -3.165108 0.881430 -9.781727 -8.780618 -0.185435 -3.241247 41.947664 -1.363277 -4.579836 17.312421 -1.566201 -0.000000 -78.506900 -7.536546 -0.173010 2.892761 -2.401798 0.224755 -2.301843 -6.535874 0.167901 1.143871 8.851387 -1.675110 -4.190396 -3.474226 -0.286972 0.709532 0.000000 0.000000 0.000000 -5.635755 8.896124 2.427111 -59.648994 3.272078 16.104341 -4.393068 -28.290832 -0.017182 -11.149706 5.045737 -0.492287 -0.105280 -0.043258 -0.000000 0.000000 0.000000 0.000000 0.000000 0.000000 0.000000 14.231517 1.335575 1.023503 54.667133 20.453602 12.678016 2.508374 47.339698 0.025568 10.232181 7.931377 0.729645 -0.036671 -0.169203 0.000000 0.000000 0.000000 0.000000 0.000000 0.000000 0.000000 
-8.981110 16.805845 -1.332293 26.792758 87.127673 44.285981 -9.028883 -0.663807 1.149873 -11.755477 -3.819644 -42.265838 -1.593831 0.763166 27.844590 1.792932 9.861471 -2.668473 1.304100 0.000000 -26.699500 11.515338 -2.411592 -3.260452 0.660992 -10.287626 -10.211828 -0.356087 -3.383014 44.724149 -1.652428 -6.158133 18.890991 -2.273100 -0.000000 -74.329400 -7.489762 -0.216074 3.054861 -2.402881 0.178901 -2.272607 -6.581462 0.122750 1.133346 8.801069 -1.627715 -4.085017 -3.503894 -0.289517 0.732312 0.000000 0.000000 0.000000 -5.550883 8.578844 2.439561 -59.439993 2.111519 15.940873 -4.427462 -28.037164 -0.016266 -11.012697 5.046878 -0.485544 -0.108327 -0.038004 -0.000000 0.000000 0.000000 0.000000 0.000000 0.000000 0.000000 14.276262 1.251119 0.974727 55.666964 19.576886 12.389373 2.587972 45.951226 0.024726 10.242664 7.865402 0.723248 -0.032265 -0.160519 0.000000 0.000000 0.000000 0.000000 0.000000 0.000000 0.000000 
